<?xml version="1.0" encoding="UTF-8" standalone="no"?>
<!-- Created with Inkscape (http://www.inkscape.org/) -->

<svg
   xmlns:dc="http://purl.org/dc/elements/1.1/"
   xmlns:cc="http://creativecommons.org/ns#"
   xmlns:rdf="http://www.w3.org/1999/02/22-rdf-syntax-ns#"
   xmlns:svg="http://www.w3.org/2000/svg"
   xmlns="http://www.w3.org/2000/svg"
   xmlns:sodipodi="http://sodipodi.sourceforge.net/DTD/sodipodi-0.dtd"
   xmlns:inkscape="http://www.inkscape.org/namespaces/inkscape"
   width="512"
   height="512"
   viewBox="0 0 135.46666 135.46666"
   version="1.1"
   id="svg8"
   inkscape:version="0.92.1 r15371"
   sodipodi:docname="icon.svg"
   inkscape:export-filename="d:\icon.png"
   inkscape:export-xdpi="96"
   inkscape:export-ydpi="96">
  <defs
     id="defs2" />
  <sodipodi:namedview
     id="base"
     pagecolor="#ffffff"
     bordercolor="#666666"
     borderopacity="1.0"
     inkscape:pageopacity="0.0"
     inkscape:pageshadow="2"
     inkscape:zoom="0.35"
     inkscape:cx="-101.42857"
     inkscape:cy="560"
     inkscape:document-units="mm"
     inkscape:current-layer="layer1"
     showgrid="false"
     units="px"
     inkscape:window-width="1440"
     inkscape:window-height="837"
     inkscape:window-x="-8"
     inkscape:window-y="-8"
     inkscape:window-maximized="1" />
  <metadata
     id="metadata5">
    <rdf:RDF>
      <cc:Work
         rdf:about="">
        <dc:format>image/svg+xml</dc:format>
        <dc:type
           rdf:resource="http://purl.org/dc/dcmitype/StillImage" />
        <dc:title></dc:title>
      </cc:Work>
    </rdf:RDF>
  </metadata>
  <g
     inkscape:label="Layer 1"
     inkscape:groupmode="layer"
     id="layer1"
     transform="translate(0,-161.53336)">
    <rect
       style="opacity:1;fill:#d4aa00;fill-opacity:1;stroke:none;stroke-width:1.5;stroke-miterlimit:4;stroke-dasharray:none;stroke-opacity:1"
       id="rect4485"
       width="135.46666"
       height="135.46666"
       x="0"
       y="161.53337"
       ry="26.458334" />
    <path
       id="path4498"
       d="m 91.06423,238.8262 q 0,-2.79213 -1.609027,-5.04004 -1.609027,-2.2479 -4.117216,-3.24171 -0.33127,2.1296 -1.088462,4.35384 -0.331269,1.13578 -1.301417,1.79832 -0.970152,0.66255 -2.105934,0.66255 -0.567895,0 -1.135784,-0.14199 -1.467055,-0.47323 -2.129595,-1.82197 -0.662539,-1.34875 -0.189299,-2.76848 1.088461,-3.36003 1.088461,-6.76738 0,-5.8209 -2.886786,-10.76629 -2.886785,-4.94539 -7.855839,-7.83217 -4.969055,-2.88679 -10.78995,-2.88679 -6.341461,0 -11.68911,3.45467 -5.347651,3.45468 -7.903165,9.18092 5.111028,1.32509 8.896977,5.01638 1.041134,1.08846 1.041134,2.60285 0,1.51438 -1.041134,2.5555 -1.041137,1.04114 -2.555515,1.04114 -1.51438,0 -2.60284,-1.04114 -3.549325,-3.54931 -8.51838,-3.54931 -5.016379,0 -8.565705,3.52566 -3.549325,3.52566 -3.549325,8.54204 0,5.01638 3.549325,8.54204 3.549326,3.52567 8.565705,3.52567 h 49.501256 q 3.738623,0 6.365125,-2.6265 2.6265,-2.62651 2.6265,-6.31781 z m 7.240623,0 q 0,6.72006 -4.756094,11.45249 -4.756098,4.73244 -11.476154,4.73244 H 32.571349 q -7.997814,0 -13.676734,-5.65526 -5.67892,-5.65526 -5.67892,-13.65307 0,-7.24063 4.732433,-12.6356 4.732435,-5.39497 11.783761,-6.43611 2.934109,-8.70768 10.458679,-14.10265 7.524569,-5.39498 16.752814,-5.39498 11.12122,0 19.331991,7.50091 8.210776,7.50091 9.299234,18.43283 5.489623,1.18311 9.109934,5.60793 3.620312,4.42484 3.620312,10.15107 z m 11.831087,0 q 0,8.28177 -4.59047,15.09646 -1.08845,1.56171 -3.02875,1.56171 -1.13579,0 -2.03495,-0.61521 -1.230428,-0.80452 -1.514374,-2.29523 -0.283948,-1.49073 0.56789,-2.72116 3.360034,-4.92172 3.360034,-11.02657 0,-6.10484 -3.360034,-11.02657 -0.851838,-1.23043 -0.56789,-2.69749 0.283946,-1.46704 1.514374,-2.31888 1.23043,-0.85184 2.72115,-0.54423 1.49072,0.3076 2.34255,1.53804 4.59047,6.72005 4.59047,15.04913 z m 12.11503,0 q 0,11.54715 -6.34146,20.96469 -1.08846,1.60903 -3.02876,1.60903 -1.08846,0 -1.98762,-0.61522 -1.23044,-0.85184 -1.53804,-2.3189 -0.30761,-1.46705 0.54423,-2.69749 5.11102,-7.76118 5.11102,-16.94211 0,-9.22823 -5.11102,-16.89478 -0.85184,-1.23044 -0.54423,-2.72115 0.3076,-1.49071 1.53804,-2.29524 1.23043,-0.85183 2.69748,-0.56789 1.46706,0.28395 2.3189,1.56171 6.34146,9.37022 6.34146,20.91735 z"
       inkscape:connector-curvature="0"
       style="fill:#ffffff;stroke-width:0.04732433" />
  </g>
</svg>
